<?xml version="1.0" encoding="utf-8"?>
<!-- Generator: Adobe Illustrator 24.0.0, SVG Export Plug-In . SVG Version: 6.00 Build 0)  -->
<svg version="1.1"
	 id="Layer_1" shape-rendering="geometricPrecision" image-rendering="optimizeQuality" text-rendering="geometricPrecision"
	 xmlns="http://www.w3.org/2000/svg" xmlns:xlink="http://www.w3.org/1999/xlink" x="0px" y="0px" viewBox="0 0 500 350"
	 style="enable-background:new 0 0 500 350;" xml:space="preserve">
<style type="text/css">
	.st0{fill:#00923F;}
	.st1{fill:#F8C300;}
	.st2{fill:#28166F;}
	.st3{fill:#FFFFFF;}
</style>
<rect class="st0" width="500" height="350"/>
<path class="st1" d="M250,42.5L42.5,175L250,307.5L457.5,175L250,42.5z"/>
<ellipse transform="matrix(0.9992 -4.083952e-02 4.083952e-02 0.9992 -6.9385 10.3483)" class="st2" cx="249.8" cy="175" rx="87.3" ry="87.3"/>
<path class="st3" d="M258.7,193.8l1.1,2.7l2.9,0.2l-2.2,1.8l0.7,2.8l-2.4-1.5l-2.4,1.5l0.7-2.8l-2.2-1.8l2.9-0.2L258.7,193.8z
	 M323.9,203.2l0.9,2.3l2.4,0.2l-1.9,1.6l0.6,2.4l-2.1-1.3l-2.1,1.3l0.6-2.4l-1.9-1.6l2.4-0.2L323.9,203.2z M314.6,210.4l1.1,2.7
	l2.9,0.2l-2.2,1.8l0.7,2.8l-2.4-1.5l-2.4,1.5l0.7-2.8l-2.2-1.8l2.9-0.2L314.6,210.4z M311.1,201l1.3,3.2l3.4,0.2l-2.6,2.2l0.8,3.3
	l-2.9-1.8l-2.9,1.8l0.8-3.3l-2.6-2.2l3.4-0.2L311.1,201z M310.5,217.3l1.1,2.7l2.9,0.2l-2.2,1.8l0.7,2.8l-2.4-1.5l-2.4,1.5l0.7-2.8
	l-2.2-1.8l2.9-0.2L310.5,217.3z M302.3,221.6l0.9,2.3l2.4,0.2l-1.9,1.6l0.6,2.4l-2.1-1.3l-2.1,1.3l0.6-2.4l-1.9-1.6l2.4-0.2
	L302.3,221.6z M293.9,229.5l1.1,2.7l2.9,0.2l-2.2,1.8l0.7,2.8l-2.4-1.5l-2.4,1.5l0.7-2.8l-2.2-1.8l2.9-0.2L293.9,229.5z
	 M293.8,239.2l0.9,2.3l2.4,0.2l-1.9,1.6l0.6,2.4l-2.1-1.3l-2.1,1.3l0.6-2.4l-1.9-1.6l2.4-0.2L293.8,239.2z M293.7,221.5l0.9,2.3
	l2.4,0.2l-1.9,1.6l0.6,2.4l-2.1-1.3l-2.1,1.3l0.6-2.4l-1.9-1.6l2.4-0.2L293.7,221.5z M283.3,223.6l0.9,2.3l2.4,0.2l-1.9,1.6l0.6,2.4
	l-2.1-1.3l-2.1,1.3l0.6-2.4L280,226l2.4-0.2L283.3,223.6z M276.7,139.8l1.3,3.2l3.4,0.2l-2.6,2.2l0.8,3.3l-2.9-1.8l-2.9,1.8l0.8-3.3
	l-2.6-2.2l3.4-0.2L276.7,139.8z M275.4,231.6l1.1,2.7l2.9,0.2l-2.2,1.8l0.7,2.8l-2.4-1.5l-2.4,1.5l0.7-2.8l-2.2-1.8l2.9-0.2
	L275.4,231.6z M270.5,166.3l0.9,2.3l2.4,0.2l-1.9,1.6l0.6,2.4l-2.1-1.3l-2.1,1.3l0.6-2.4l-1.9-1.6l2.4-0.2L270.5,166.3z
	 M268.2,221.4l0.9,2.3l2.4,0.2l-1.9,1.6l0.6,2.4l-2.1-1.3l-2.1,1.3l0.6-2.4l-1.9-1.6l2.4-0.2L268.2,221.4z M250.7,186.3l1.1,2.7
	l2.9,0.2l-2.2,1.8l0.7,2.8l-2.4-1.5l-2.4,1.5l0.7-2.8l-2.2-1.8l2.9-0.2L250.7,186.3z M250.1,211.1l1.3,3.2l3.4,0.2l-2.6,2.2l0.8,3.3
	l-2.9-1.8l-2.9,1.8l0.8-3.3l-2.6-2.2l3.4-0.2L250.1,211.1z M250.4,242.7l0.5,1.2l1.3,0.1l-1,0.8l0.3,1.3l-1.1-0.7l-1.1,0.7l0.3-1.3
	l-1-0.8l1.3-0.1L250.4,242.7z M244.9,201l0.7,1.7l1.8,0.1l-1.4,1.2l0.5,1.8l-1.5-1l-1.5,1l0.5-1.8l-1.4-1.2l1.8-0.1L244.9,201z
	 M238.5,195.4l0.9,2.3l2.4,0.2l-1.9,1.6l0.6,2.4l-2.1-1.3l-2.1,1.3l0.6-2.4l-1.9-1.6l2.4-0.2L238.5,195.4z M215.9,174.6l1.1,2.7
	l2.9,0.2l-2.2,1.8l0.7,2.8l-2.4-1.5l-2.4,1.5l0.7-2.8l-2.2-1.8l2.9-0.2L215.9,174.6z M213.3,218.7l1.2,3.2l3.4,0.2l-2.6,2.2l0.8,3.3
	l-2.9-1.8l-2.9,1.8l0.8-3.3l-2.6-2.2l3.4-0.2L213.3,218.7z M203.7,201.3l1.1,2.7l2.9,0.2l-2.2,1.8l0.7,2.8l-2.4-1.5l-2.4,1.5
	l0.7-2.8l-2.2-1.8l2.9-0.2L203.7,201.3z M200.6,211.1l0.9,2.3l2.4,0.2l-1.9,1.6l0.6,2.4l-2.1-1.3l-2.1,1.3l0.6-2.4l-1.9-1.6l2.4-0.2
	L200.6,211.1z M194,188.8l0.7,1.7l1.8,0.1l-1.4,1.2l0.5,1.8l-1.5-1l-1.5,1l0.5-1.8l-1.4-1.2l1.8-0.1L194,188.8z M186,192.3l1.2,3.2
	l3.4,0.2l-2.6,2.2l0.8,3.3l-2.9-1.8l-2.9,1.8l0.8-3.3l-2.6-2.2l3.4-0.2L186,192.3z M178.8,156l1.3,3.2l3.4,0.2l-2.6,2.2l0.8,3.3
	l-2.9-1.8l-2.9,1.8l0.8-3.3l-2.6-2.2l3.4-0.2L178.8,156z M176.9,200.6l1.1,2.7l2.9,0.2l-2.2,1.8l0.7,2.8l-2.4-1.5l-2.4,1.5l0.7-2.8
	l-2.2-1.8l2.9-0.2L176.9,200.6z"/>
<path class="st3" d="M197.7,148c51.9,0,99.6,19.1,136.2,50.6c1.2-4.2,2.1-8.6,2.7-13.1c-38-30.8-86.3-49.3-138.9-49.3
	c-9.1,0-18.1,0.6-26.9,1.6c-1.9,4-3.5,8.2-4.7,12.5C176.4,148.8,186.9,148,197.7,148z"/>
<path class="st0" d="M175.2,143.5c0.1,0.9,0.3,1.5,0.7,1.9c0.4,0.4,1,0.6,1.7,0.6c0.7-0.1,1.2-0.3,1.5-0.9c0.3-0.5,0.5-1.2,0.4-2
	c-0.1-0.9-0.3-1.5-0.7-1.9c-0.4-0.4-1-0.6-1.7-0.6c-0.7,0.1-1.2,0.3-1.5,0.8C175.3,142,175.1,142.6,175.2,143.5z M173.6,143.6
	c-0.1-1.3,0.2-2.3,0.8-3.1c0.6-0.8,1.5-1.2,2.7-1.3c1.2-0.1,2.1,0.2,2.9,0.9c0.8,0.7,1.2,1.6,1.3,2.9c0.1,1.3-0.2,2.3-0.8,3.1
	c-0.6,0.8-1.5,1.2-2.7,1.3c-1.2,0.1-2.1-0.2-2.9-0.9C174.1,145.8,173.7,144.9,173.6,143.6z M186.3,142.2l1.9-0.1
	c0.4,0,0.7-0.1,0.9-0.3c0.2-0.2,0.3-0.4,0.3-0.8c0-0.3-0.1-0.6-0.3-0.8c-0.2-0.2-0.5-0.2-0.8-0.2l-2,0.1L186.3,142.2z M184.8,146.6
	l-0.3-7.8l3.8-0.1c0.8,0,1.5,0.1,1.9,0.5c0.4,0.3,0.6,0.9,0.7,1.6c0,0.5-0.1,0.9-0.3,1.2c-0.2,0.3-0.5,0.6-0.8,0.7
	c0.3,0.1,0.6,0.3,0.7,0.5c0.2,0.2,0.2,0.6,0.3,1.1l0.1,0.9c0,0,0,0,0,0c0,0.5,0.1,0.7,0.3,0.8l0,0.2l-1.8,0.1
	c-0.1-0.1-0.1-0.2-0.1-0.4c0-0.2-0.1-0.4-0.1-0.6l-0.1-0.8c0-0.5-0.1-0.8-0.3-1c-0.2-0.2-0.5-0.2-0.9-0.2l-1.7,0.1l0.1,3
	L184.8,146.6z M196.3,144.9l1.3,0c0.7,0,1.3-0.2,1.6-0.6c0.3-0.4,0.5-1,0.5-1.9c0-0.9-0.1-1.5-0.4-1.9c-0.3-0.4-0.8-0.6-1.4-0.6
	l-1.5,0L196.3,144.9z M194.7,146.2l0.2-7.8l3,0.1c1.2,0,2.1,0.4,2.7,1c0.6,0.7,0.8,1.6,0.8,3c0,0.7-0.1,1.3-0.4,1.9
	c-0.2,0.5-0.6,1-1,1.3c-0.3,0.2-0.7,0.4-1.1,0.5c-0.4,0.1-1,0.1-1.7,0.1L194.7,146.2z M204.6,146.4l0.4-7.8l5.7,0.3l-0.1,1.4
	l-4.1-0.2l-0.1,1.7l3.7,0.2l-0.1,1.3l-3.7-0.2l-0.1,2l4.3,0.2l-0.1,1.4L204.6,146.4z M213.8,147l0.8-7.8l2.4,0.2l0.9,6.1l2.1-5.7
	l2.4,0.2l-0.8,7.8l-1.5-0.2l0.7-6.2l-2.2,6.1l-1.6-0.2l-0.9-6.4l-0.7,6.2L213.8,147z M234.4,149.6l1.6-7.6l5.5,1.2l-0.3,1.3l-4-0.9
	l-0.4,1.6l3.6,0.8l-0.3,1.3l-3.7-0.8l-0.4,2l4.2,0.9l-0.3,1.4L234.4,149.6z M255.1,150.1l1.5,0.4c0.4,0.1,0.7,0.1,1,0
	c0.2-0.1,0.4-0.4,0.5-0.8c0.1-0.4,0.1-0.6,0-0.9c-0.1-0.2-0.4-0.4-0.7-0.5l-1.6-0.4L255.1,150.1z M254.7,151.5l-0.7,2.7l-1.5-0.4
	l2-7.5l3.3,0.9c0.8,0.2,1.3,0.6,1.6,1.1c0.3,0.5,0.3,1.2,0.1,2c-0.2,0.8-0.6,1.3-1.1,1.6c-0.5,0.3-1.1,0.4-1.9,0.2L254.7,151.5z
	 M264,152.7l1.8,0.6c0.4,0.1,0.7,0.1,0.9,0c0.2-0.1,0.4-0.3,0.5-0.7c0.1-0.3,0.1-0.6,0-0.8c-0.1-0.2-0.4-0.4-0.7-0.5l-1.9-0.6
	L264,152.7z M261.2,156.4l2.3-7.4l3.6,1.1c0.8,0.2,1.4,0.6,1.6,1.1c0.3,0.5,0.3,1.1,0.1,1.8c-0.1,0.5-0.4,0.8-0.6,1
	c-0.3,0.2-0.6,0.4-1,0.4c0.3,0.2,0.5,0.5,0.5,0.7c0.1,0.3,0,0.7-0.1,1.2l-0.2,0.9c0,0,0,0,0,0c-0.1,0.4-0.1,0.7,0,0.9l-0.1,0.2
	l-1.7-0.5c0-0.1,0-0.3,0-0.4c0-0.2,0.1-0.4,0.1-0.6l0.2-0.8c0.1-0.5,0.1-0.8,0-1c-0.1-0.2-0.4-0.4-0.8-0.5l-1.6-0.5l-0.9,2.9
	L261.2,156.4z M273.1,156.4c-0.3,0.8-0.3,1.5-0.1,2.1c0.2,0.6,0.6,1,1.3,1.2c0.7,0.2,1.2,0.2,1.8-0.1c0.5-0.3,0.9-0.9,1.2-1.7
	c0.3-0.8,0.3-1.5,0.1-2.1c-0.2-0.6-0.6-1-1.3-1.2c-0.6-0.2-1.2-0.2-1.7,0.1C273.8,155,273.4,155.6,273.1,156.4z M271.6,155.8
	c0.4-1.2,1.1-2,2-2.5c0.9-0.5,1.9-0.5,3-0.1c1.1,0.4,1.8,1.1,2.2,2c0.4,0.9,0.4,2-0.1,3.2c-0.4,1.2-1.1,2-2,2.5
	c-0.9,0.5-1.9,0.5-3,0.1c-1.1-0.4-1.8-1.1-2.2-2C271.1,158.1,271.1,157,271.6,155.8z M286,165c-0.4,0.2-0.8,0.4-1.2,0.4
	c-0.4,0-0.8-0.1-1.3-0.3c-1-0.4-1.7-1.1-2-2.1c-0.3-1-0.2-2,0.2-3.1c0.5-1.1,1.2-1.9,2.1-2.3c0.9-0.4,1.9-0.4,2.9,0
	c0.9,0.4,1.5,0.9,1.9,1.6c0.4,0.7,0.5,1.4,0.3,2.2l-1.5-0.6c0.1-0.4,0-0.8-0.2-1.1c-0.2-0.3-0.5-0.6-1-0.8c-0.6-0.3-1.2-0.2-1.7,0.1
	c-0.5,0.3-1,0.8-1.3,1.6c-0.3,0.8-0.4,1.5-0.2,2.1c0.2,0.6,0.6,1,1.2,1.3c0.5,0.2,0.9,0.2,1.4,0.1c0.4-0.1,0.8-0.4,1.1-0.9l-1.6-0.7
	l0.5-1.2l3,1.3l-1.7,3.9l-1-0.4L286,165z M293.4,164.8l1.7,0.8c0.4,0.2,0.7,0.2,0.9,0.2c0.2-0.1,0.4-0.3,0.6-0.6
	c0.1-0.3,0.2-0.6,0.1-0.8c-0.1-0.2-0.3-0.4-0.6-0.6l-1.8-0.9L293.4,164.8z M290,168l3.4-7l3.4,1.7c0.8,0.4,1.2,0.8,1.5,1.3
	c0.2,0.5,0.2,1.1-0.2,1.8c-0.2,0.4-0.5,0.7-0.8,0.9c-0.3,0.2-0.7,0.3-1.1,0.2c0.2,0.3,0.4,0.5,0.4,0.8c0,0.3-0.1,0.7-0.3,1.1
	l-0.4,0.8c0,0,0,0,0,0c-0.2,0.4-0.2,0.7-0.1,0.9l-0.1,0.2l-1.6-0.8c0-0.1,0-0.3,0.1-0.4c0-0.2,0.1-0.3,0.2-0.5l0.3-0.7
	c0.2-0.4,0.3-0.8,0.2-1c-0.1-0.2-0.3-0.4-0.7-0.6l-1.5-0.8l-1.3,2.7L290,168z M298.7,172.5l3.8-6.8l4.9,2.8l-0.7,1.2l-3.6-2
	l-0.8,1.5l3.3,1.8L305,172l-3.3-1.8l-1,1.8l3.7,2.1l-0.7,1.3L298.7,172.5z M307.5,174.9l1.4,0.8c-0.2,0.4-0.2,0.8,0,1.1
	c0.1,0.3,0.4,0.6,0.9,0.9c0.4,0.2,0.7,0.4,1,0.3c0.3,0,0.5-0.2,0.7-0.4c0.2-0.4-0.1-1.1-1.1-2.1c0,0,0,0,0,0c0,0-0.1-0.1-0.1-0.1
	c-0.5-0.5-0.9-0.9-1.1-1.3c-0.2-0.3-0.2-0.6-0.2-0.9c0-0.3,0.1-0.7,0.4-1c0.4-0.7,0.9-1,1.6-1.1c0.6-0.1,1.4,0.1,2.2,0.6
	c0.8,0.5,1.3,1,1.5,1.7c0.2,0.6,0.1,1.3-0.2,2l-1.3-0.8c0.2-0.3,0.2-0.7,0.1-1c-0.1-0.3-0.4-0.6-0.8-0.8c-0.4-0.2-0.7-0.3-1-0.3
	c-0.3,0-0.5,0.2-0.7,0.4c-0.2,0.4,0,0.8,0.7,1.5c0.2,0.2,0.3,0.3,0.4,0.4c0.4,0.4,0.7,0.7,0.9,0.9c0.2,0.2,0.3,0.4,0.4,0.6
	c0.2,0.3,0.3,0.6,0.2,1c0,0.3-0.1,0.7-0.3,1c-0.4,0.7-1,1.1-1.7,1.2c-0.7,0.1-1.5-0.1-2.3-0.6c-0.8-0.5-1.4-1.1-1.6-1.8
	C307,176.3,307.1,175.6,307.5,174.9z M315.7,180l1.3,0.9c-0.2,0.4-0.2,0.7-0.1,1.1c0.1,0.3,0.4,0.7,0.9,1c0.4,0.3,0.7,0.4,1,0.4
	s0.5-0.1,0.7-0.4c0.3-0.4-0.1-1.1-1-2.1c0,0,0,0,0,0c0,0-0.1-0.1-0.1-0.1c-0.5-0.5-0.8-1-1-1.3c-0.1-0.3-0.2-0.6-0.1-0.9
	c0-0.3,0.2-0.7,0.4-1c0.4-0.6,1-1,1.6-1c0.7,0,1.4,0.2,2.2,0.8c0.8,0.5,1.2,1.1,1.4,1.7c0.2,0.6,0.1,1.3-0.3,2l-1.3-0.9
	c0.2-0.3,0.2-0.7,0.1-1c-0.1-0.3-0.4-0.6-0.8-0.9c-0.4-0.2-0.7-0.3-0.9-0.3c-0.3,0-0.5,0.1-0.7,0.4c-0.2,0.3,0,0.8,0.6,1.5
	c0.2,0.2,0.3,0.3,0.4,0.4c0.4,0.4,0.7,0.8,0.8,1c0.1,0.2,0.3,0.4,0.4,0.6c0.2,0.3,0.2,0.6,0.2,1c0,0.3-0.2,0.7-0.4,1
	c-0.5,0.7-1,1-1.7,1.1c-0.7,0.1-1.5-0.2-2.3-0.7c-0.8-0.6-1.3-1.2-1.5-1.9C315.2,181.4,315.3,180.7,315.7,180z M325.6,185.3
	c-0.5,0.7-0.8,1.3-0.8,1.9c0,0.6,0.3,1.1,0.8,1.5c0.5,0.4,1.1,0.5,1.7,0.4c0.6-0.1,1.1-0.6,1.7-1.2c0.5-0.7,0.8-1.3,0.7-1.9
	c0-0.6-0.3-1.1-0.9-1.5c-0.5-0.4-1.1-0.5-1.7-0.4C326.7,184.2,326.2,184.6,325.6,185.3z M324.3,184.3c0.8-1,1.6-1.6,2.6-1.8
	c1-0.2,2,0.1,2.9,0.8c0.9,0.7,1.4,1.6,1.5,2.6c0.1,1-0.2,2-1,3c-0.8,1-1.6,1.6-2.6,1.8c-1,0.2-2-0.1-2.9-0.8
	c-0.9-0.7-1.4-1.6-1.5-2.6C323.2,186.3,323.6,185.3,324.3,184.3z"/>
</svg>
